<?xml version="1.0" encoding="UTF-8"?>
<svg xmlns="http://www.w3.org/2000/svg" xmlns:xlink="http://www.w3.org/1999/xlink" width="450pt" height="427.84pt" viewBox="0 0 450 427.84" version="1.1">
<defs>
<clipPath id="clip1">
  <path d="M 176 334 L 236 334 L 236 427.839844 L 176 427.839844 Z M 176 334 "/>
</clipPath>
</defs>
<g id="surface1">
<path style=" stroke:none;fill-rule:nonzero;fill:rgb(0%,0%,0%);fill-opacity:1;" d="M 180.484375 25.960938 C 185.425781 25.300781 190.375 24.066406 195.3125 24.105469 C 206.429688 24.195313 217.671875 24.011719 228.628906 25.585938 C 246.488281 28.148438 263.078125 34.703125 277.566406 45.765625 C 281.691406 48.917969 285.972656 52.246094 288.960938 56.378906 C 291.40625 59.769531 292.316406 64.402344 293.421875 68.609375 C 296.40625 79.980469 302.167969 89.671875 310.472656 97.894531 C 314.171875 101.554688 315.335938 105.710938 313.46875 110.644531 C 310.574219 118.296875 307.78125 125.984375 304.796875 133.597656 C 301.25 142.65625 298.019531 151.890625 293.757813 160.605469 C 290.457031 167.351563 284.496094 171.121094 276.539063 171.46875 C 267.808594 171.851563 259.976563 168.777344 251.984375 166.039063 C 245.523438 163.824219 239.078125 160.859375 232.410156 160.074219 C 218.257813 158.402344 206.554688 166.203125 200.195313 178.289063 C 193.992188 190.089844 192.046875 202.546875 194.71875 215.738281 C 199.214844 237.941406 215.179688 251.128906 236.972656 252.136719 C 243.183594 252.425781 249.601563 252.003906 255.667969 250.71875 C 262.851563 249.195313 270.121094 247.140625 276.707031 243.964844 C 289.324219 237.882813 300.804688 229.914063 311.601563 220.855469 C 321.535156 212.519531 330.316406 203.234375 338.132813 192.964844 C 347.1875 181.0625 354.535156 168.1875 359.875 154.207031 C 364.816406 141.277344 368.316406 127.96875 368.5625 114.089844 C 368.710938 105.703125 368.082031 97.265625 367.234375 88.90625 C 366.175781 78.4375 362.5 68.617188 357.710938 59.363281 C 351.832031 48 344.074219 38.027344 334.121094 29.738281 C 324.269531 21.535156 313.445313 15.246094 301.378906 11.027344 C 292.238281 7.835938 282.914063 5.25 273.203125 5.003906 C 262.207031 4.722656 251.140625 4.316406 240.210938 5.230469 C 232.023438 5.910156 223.941406 8.359375 215.921875 10.441406 C 203.3125 13.714844 191.6875 19.402344 180.484375 25.960938 M 308.441406 105.820313 C 305.816406 103.535156 303.269531 101.820313 301.359375 99.566406 C 294.800781 91.824219 290.449219 82.976563 288.410156 72.953125 C 287.269531 67.347656 286.277344 61.621094 281.582031 57.421875 C 273.042969 49.78125 263.539063 43.773438 252.871094 39.613281 C 243.210938 35.847656 233.230469 33.609375 222.859375 32.707031 C 210.839844 31.65625 198.9375 31.699219 187.171875 34.59375 C 181.914063 35.882813 177.019531 37.460938 171.238281 35.71875 C 160.996094 32.632813 150.402344 30.695313 139.5625 31.472656 C 135.238281 31.78125 130.636719 32.617188 129.125 37.191406 C 128.121094 40.230469 128.324219 44 129.058594 47.199219 C 130.210938 52.238281 132.46875 57.015625 133.820313 62.023438 C 134.273438 63.695313 133.960938 66.125 133 67.519531 C 130.664063 70.90625 127.632813 73.796875 125.074219 77.042969 C 115.339844 89.402344 107.472656 102.828125 102.320313 117.753906 C 97.136719 132.777344 94.515625 148.09375 95.402344 164.128906 C 95.988281 174.695313 97.746094 184.964844 101.261719 194.769531 C 107.171875 211.25 116.558594 225.527344 130.125 236.988281 C 139.851563 245.207031 150.578125 251.523438 162.554688 255.59375 C 177.078125 260.53125 192.050781 262.96875 207.4375 261.730469 C 216.324219 261.011719 225.195313 260.082031 234.042969 258.976563 C 237.808594 258.503906 241.488281 257.339844 245.210938 256.488281 C 223.191406 260.257813 203.058594 252.984375 192.191406 235.453125 C 180.703125 216.914063 180.96875 197.617188 190.882813 178.25 C 179.230469 187.855469 172.429688 199.976563 170.523438 214.855469 C 170.335938 207.820313 169.191406 200.589844 170.5625 193.867188 C 173.914063 177.433594 182.492188 164.15625 197.382813 155.453125 C 214.679688 145.34375 232.636719 144.472656 251.289063 151.027344 C 259.199219 153.808594 267.0625 156.941406 275.199219 158.761719 C 281.097656 160.082031 285.371094 160.671875 289.339844 153.289063 C 291.777344 148.75 293.953125 144.070313 296.671875 138.601563 C 295.027344 139.488281 294.351563 139.957031 293.601563 140.234375 C 284.027344 143.800781 275.023438 141.953125 266.65625 136.800781 C 264.195313 135.285156 263.785156 132.375 265.328125 129.457031 C 266.8125 126.652344 268.855469 126.808594 271.242188 127.859375 C 272.445313 128.386719 273.632813 128.949219 274.820313 129.511719 C 279.007813 131.492188 283.117188 133.675781 287.40625 135.402344 C 291.214844 136.929688 295.335938 135.601563 297.234375 132.089844 C 299.371094 128.128906 300.855469 123.816406 302.769531 119.726563 C 304.046875 116.996094 302.617188 115.101563 301.144531 113.140625 C 299.949219 111.554688 298.75 109.96875 297.210938 107.933594 C 301.410156 107.144531 304.730469 106.519531 308.441406 105.820313 M 83.835938 164.046875 C 84.5625 144.046875 89.132813 125.203125 97.089844 107.066406 C 103.96875 91.375 113.308594 77.285156 124.230469 64.167969 C 124.816406 63.464844 124.945313 62.03125 124.726563 61.066406 C 123.484375 55.585938 121.238281 50.191406 120.890625 44.675781 C 120.144531 32.691406 125.605469 25.421875 137.90625 23.308594 C 148.347656 21.519531 158.53125 23.746094 168.808594 25.09375 C 171.078125 25.394531 173.828125 23.730469 176.046875 22.4375 C 189.734375 14.429688 204.425781 9 219.691406 4.953125 C 235.742188 0.703125 252.128906 -0.714844 268.605469 0.324219 C 283.253906 1.246094 297.507813 4.429688 311.097656 10.371094 C 325.09375 16.488281 337.484375 24.839844 347.765625 36.097656 C 360.425781 49.964844 368.847656 66.066406 372.835938 84.546875 C 375.074219 94.9375 375.878906 105.378906 375.417969 115.914063 C 374.761719 130.878906 371.53125 145.367188 366.144531 159.324219 C 361.375 171.675781 355.523438 183.539063 347.605469 194.195313 C 342.234375 201.429688 336.445313 208.375 330.574219 215.21875 C 320.476563 226.996094 308.359375 236.527344 295.40625 244.878906 C 275.222656 257.898438 253.421875 267.09375 229.625 271.359375 C 217.414063 273.550781 205.136719 274.664063 192.816406 273.882813 C 177.25 272.894531 162.164063 269.480469 147.769531 263.148438 C 133.867188 257.035156 121.734375 248.480469 111.597656 237.277344 C 99.457031 223.875 91.175781 208.257813 87.515625 190.503906 C 85.71875 181.804688 85.027344 172.875 83.835938 164.046875 "/>
<g clip-path="url(#clip1)" clip-rule="nonzero">
<path style=" stroke:none;fill-rule:nonzero;fill:rgb(0%,0%,0%);fill-opacity:1;" d="M 235.511719 334.695313 C 235.511719 354.539063 235.8125 374.121094 235.335938 393.6875 C 235.1875 399.882813 234.859375 406.21875 232.363281 412.34375 C 229.03125 420.511719 223.015625 425.128906 214.964844 426.667969 C 205.359375 428.503906 195.550781 428.414063 186.238281 424.730469 C 182.914063 423.414063 179.929688 421.238281 176.609375 419.351563 C 180.03125 414.132813 183.050781 409.53125 185.476563 405.832031 C 191.578125 407.539063 196.863281 409.527344 202.324219 410.421875 C 209.851563 411.652344 213.996094 408.101563 215.175781 400.5 C 215.269531 399.890625 215.554688 399.308594 215.726563 398.785156 C 210.964844 399.085938 206.339844 399.6875 201.726563 399.617188 C 187.292969 399.402344 176.730469 388.65625 176.453125 374.46875 C 176.222656 362.355469 176.40625 350.238281 176.40625 338.125 L 176.40625 334.636719 L 196.109375 334.636719 L 196.109375 338.164063 C 196.109375 349.035156 196.253906 359.90625 196.070313 370.769531 C 195.867188 382.886719 205.445313 384.214844 213.28125 381.382813 C 214.21875 381.042969 215.039063 378.976563 215.054688 377.699219 C 215.183594 364.679688 215.132813 351.660156 215.132813 338.640625 L 215.132813 334.695313 "/>
</g>
<path style=" stroke:none;fill-rule:nonzero;fill:rgb(0%,0%,0%);fill-opacity:1;" d="M 147.871094 366.671875 C 148.320313 358.296875 140.414063 350.503906 132.542969 350.640625 C 120.671875 350.84375 115.316406 358.121094 115.5 366.617188 C 115.71875 376.769531 120.703125 382.644531 131.757813 383.144531 C 140.539063 383.539063 147.828125 377.453125 147.871094 366.671875 M 150.734375 339.316406 C 150.867188 333.636719 154.34375 333.59375 158.410156 333.703125 C 166.890625 333.9375 166.894531 333.777344 166.894531 342.355469 L 166.894531 399.492188 L 151.523438 399.492188 C 151.117188 398.082031 150.675781 396.546875 150.230469 395 C 133.761719 406.613281 113.867188 402.175781 103.046875 388.359375 C 93.347656 375.976563 93.285156 356.011719 104.707031 343.347656 C 115.324219 331.574219 135.347656 327.851563 150.734375 339.316406 "/>
<path style=" stroke:none;fill-rule:nonzero;fill:rgb(0%,0%,0%);fill-opacity:1;" d="M 20.363281 333.453125 L 20.363281 356.207031 C 26.265625 355.457031 31.992188 355.257813 37.410156 353.863281 C 41.5 352.808594 43.367188 347.4375 42.554688 342.324219 C 41.992188 338.785156 38.109375 334.863281 34.433594 334.484375 C 29.875 334.015625 25.292969 333.804688 20.363281 333.453125 M 20.144531 373.859375 L 20.144531 399.40625 L 0 399.40625 L 0 315.433594 L 3.566406 315.433594 C 13.519531 315.433594 23.46875 315.382813 33.421875 315.445313 C 47.230469 315.53125 58.636719 324.109375 62.035156 337.542969 C 64.675781 347.972656 62 357.632813 54.632813 365.277344 C 49.507813 370.59375 42.808594 373.871094 35.011719 373.859375 C 30.171875 373.851563 25.339844 373.859375 20.144531 373.859375 "/>
<path style=" stroke:none;fill-rule:nonzero;fill:rgb(0%,0%,0%);fill-opacity:1;" d="M 431.175781 367.085938 C 431.910156 357.078125 423.808594 351.066406 415.828125 350.59375 C 407.175781 350.074219 398.871094 357.863281 399.152344 366.757813 C 399.480469 377.050781 406.035156 383.097656 415.097656 383.203125 C 423.96875 383.304688 431.75 377.167969 431.175781 367.085938 M 434.265625 339.296875 C 434.644531 337.960938 434.746094 336.777344 435.308594 335.878906 C 435.84375 335.023438 436.828125 333.914063 437.664063 333.871094 C 441.703125 333.664063 445.757813 333.777344 450 333.777344 L 450 399.671875 C 445.523438 399.671875 441.113281 399.976563 436.789063 399.484375 C 435.496094 399.335938 434.460938 396.957031 433.175781 395.449219 C 426.765625 399.878906 419.121094 402.46875 410.808594 401.574219 C 401.699219 400.597656 393.53125 396.953125 387.660156 389.6875 C 376.125 375.414063 377.578125 356.566406 386.988281 345.046875 C 399.300781 329.980469 420.011719 328.710938 434.265625 339.296875 "/>
<path style=" stroke:none;fill-rule:nonzero;fill:rgb(0%,0%,0%);fill-opacity:1;" d="M 382.367188 334.453125 C 374.808594 345.136719 367.601563 355.320313 360.410156 365.484375 C 368.496094 376.808594 376.445313 387.945313 384.816406 399.667969 C 376.898438 399.667969 369.710938 399.71875 362.523438 399.59375 C 361.796875 399.578125 360.890625 398.652344 360.394531 397.929688 C 354.730469 389.601563 349.128906 381.234375 342.996094 372.109375 L 342.996094 399.492188 L 324.097656 399.492188 L 324.097656 316.355469 L 342.769531 316.355469 L 342.769531 359.894531 C 346.492188 354.429688 349.632813 349.804688 352.796875 345.195313 C 353.421875 344.28125 354.390625 343.515625 354.746094 342.515625 C 357.535156 334.753906 363.433594 333.511719 370.699219 334.378906 C 374.335938 334.8125 378.0625 334.453125 382.367188 334.453125 "/>
<path style=" stroke:none;fill-rule:nonzero;fill:rgb(0%,0%,0%);fill-opacity:1;" d="M 280.867188 334.453125 L 280.867188 349.996094 L 264.046875 349.996094 L 264.046875 357.195313 C 264.046875 362.964844 264.027344 368.730469 264.054688 374.5 C 264.070313 379.070313 267.03125 381.902344 271.644531 382.035156 C 274.863281 382.128906 279.113281 381.300781 280.976563 383 C 282.613281 384.488281 281.609375 388.917969 281.699219 392.050781 C 281.765625 394.417969 281.710938 396.785156 281.710938 399.710938 C 272.144531 399.085938 262.304688 401.820313 253.75 395.542969 C 248.359375 391.582031 245.183594 386.222656 245.035156 379.382813 C 244.765625 366.878906 244.753906 354.363281 244.25 341.867188 C 244.0625 337.3125 245.09375 333.609375 248.140625 330.285156 C 250.703125 327.492188 253.152344 324.585938 255.46875 321.585938 C 257.429688 319.039063 259.84375 318.253906 263.367188 319.125 C 263.367188 322.953125 263.507813 326.980469 263.320313 330.992188 C 263.191406 333.664063 264.058594 334.621094 266.785156 334.507813 C 271.394531 334.3125 276.015625 334.453125 280.867188 334.453125 "/>
<path style=" stroke:none;fill-rule:nonzero;fill:rgb(0%,0%,0%);fill-opacity:1;" d="M 69.308594 399.511719 L 88.585938 399.511719 L 88.585938 314.902344 L 69.308594 314.902344 Z M 69.308594 399.511719 "/>
<path style=" stroke:none;fill-rule:nonzero;fill:rgb(0%,0%,0%);fill-opacity:1;" d="M 293.429688 399.511719 L 312.054688 399.511719 L 312.054688 334.722656 L 293.429688 334.722656 Z M 293.429688 399.511719 "/>
<path style=" stroke:none;fill-rule:nonzero;fill:rgb(0%,0%,0%);fill-opacity:1;" d="M 145.925781 68.816406 C 143.175781 62.820313 139.921875 56.996094 137.789063 50.789063 C 134.398438 40.917969 140.496094 38.730469 148.144531 39.847656 C 157.046875 41.144531 165.707031 44.109375 174.460938 46.398438 C 175.1875 46.589844 175.820313 47.125 176.496094 47.917969 C 161.894531 48.347656 153.902344 57.785156 147.128906 68.957031 "/>
<path style=" stroke:none;fill-rule:nonzero;fill:rgb(0%,0%,0%);fill-opacity:1;" d="M 226.253906 75.105469 C 242.347656 71.886719 258.480469 71.972656 275.152344 75.113281 C 273.160156 82.558594 277.191406 88.945313 278.097656 95.839844 C 278.703125 100.492188 278.210938 105.285156 278.210938 110.015625 C 277.730469 110.039063 277.25 110.0625 276.769531 110.085938 C 276.378906 107.742188 276.34375 105.265625 275.523438 103.082031 C 273.824219 98.578125 272.226563 93.90625 269.660156 89.890625 C 264.675781 82.085938 256.53125 78.675781 247.875 77.109375 C 240.78125 75.828125 233.476563 75.730469 226.253906 75.105469 "/>
<path style=" stroke:none;fill-rule:nonzero;fill:rgb(0%,0%,0%);fill-opacity:1;" d="M 141.757813 91.796875 C 141.796875 97.773438 136.867188 105.0625 131.316406 106.625 C 126.898438 107.871094 123.609375 105.839844 123.699219 100.148438 C 123.796875 94.191406 127.246094 87.199219 133.859375 85.113281 C 138.445313 83.664063 141.726563 86.371094 141.757813 91.796875 "/>
<path style=" stroke:none;fill-rule:nonzero;fill:rgb(0%,0%,0%);fill-opacity:1;" d="M 110.394531 130.800781 C 110.636719 126.71875 111.71875 123.542969 114.359375 121.035156 C 116.605469 118.902344 119.234375 119.21875 121.070313 121.8125 C 123.59375 125.375 122.527344 133.796875 119.210938 136.484375 C 115.941406 139.140625 112.59375 138.199219 111.191406 134.164063 C 110.765625 132.933594 110.582031 131.613281 110.394531 130.800781 "/>
<path style=" stroke:none;fill-rule:nonzero;fill:rgb(0%,0%,0%);fill-opacity:1;" d="M 222.066406 49.792969 C 221.84375 49.792969 221.617188 49.789063 221.394531 49.792969 C 218.578125 49.832031 215.925781 49.179688 214.886719 46.335938 C 214.464844 45.183594 214.882813 43.109375 215.726563 42.238281 C 217.878906 40.011719 220.851563 39.40625 223.589844 40.957031 C 225.328125 41.945313 227.398438 43.597656 227.851563 45.335938 C 228.613281 48.265625 226.273438 49.785156 222.066406 49.792969 "/>
<path style=" stroke:none;fill-rule:nonzero;fill:rgb(0%,0%,0%);fill-opacity:1;" d="M 115.929688 156.019531 C 116.15625 158.792969 115.308594 161.0625 112.410156 161.101563 C 109.617188 161.140625 109.246094 158.320313 109.300781 156.421875 C 109.359375 154.417969 109.667969 151.746094 112.828125 151.710938 C 115.984375 151.675781 116.054688 153.847656 115.929688 156.019531 "/>
<path style=" stroke:none;fill-rule:nonzero;fill:rgb(0%,0%,0%);fill-opacity:1;" d="M 246.09375 53.171875 C 241.683594 53.242188 239.210938 51.632813 239.734375 49.449219 C 240.023438 48.253906 241.632813 46.804688 242.875 46.535156 C 245.367188 45.992188 248.832031 48.703125 248.296875 50.566406 C 247.9375 51.808594 246.484375 52.734375 246.09375 53.171875 "/>
<path style=" stroke:none;fill-rule:nonzero;fill:rgb(100%,19.993591%,26.268005%);fill-opacity:1;" d="M 180.484375 25.960938 C 185.425781 25.300781 190.375 24.066406 195.3125 24.105469 C 206.429688 24.195313 217.671875 24.011719 228.628906 25.585938 C 246.488281 28.148438 263.078125 34.703125 277.566406 45.765625 C 281.691406 48.917969 285.972656 52.246094 288.960938 56.378906 C 291.40625 59.769531 292.316406 64.402344 293.421875 68.609375 C 296.40625 79.980469 302.167969 89.671875 310.472656 97.894531 C 314.171875 101.554688 315.335938 105.710938 313.46875 110.644531 C 310.574219 118.296875 307.78125 125.984375 304.796875 133.597656 C 301.25 142.65625 298.019531 151.890625 293.757813 160.605469 C 290.457031 167.351563 284.496094 171.121094 276.539063 171.46875 C 267.808594 171.851563 259.976563 168.777344 251.984375 166.039063 C 245.523438 163.824219 239.078125 160.859375 232.410156 160.074219 C 218.257813 158.402344 206.554688 166.203125 200.195313 178.289063 C 193.992188 190.089844 192.046875 202.546875 194.71875 215.738281 C 199.214844 237.941406 215.179688 251.128906 236.972656 252.136719 C 243.183594 252.425781 249.601563 252.003906 255.667969 250.71875 C 262.851563 249.195313 270.121094 247.140625 276.707031 243.964844 C 289.324219 237.882813 300.804688 229.914063 311.601563 220.855469 C 321.535156 212.519531 330.316406 203.234375 338.132813 192.964844 C 347.1875 181.0625 354.535156 168.1875 359.875 154.207031 C 364.816406 141.277344 368.316406 127.96875 368.5625 114.089844 C 368.710938 105.703125 368.082031 97.265625 367.234375 88.90625 C 366.175781 78.4375 362.5 68.617188 357.710938 59.363281 C 351.832031 48 344.074219 38.027344 334.121094 29.738281 C 324.269531 21.535156 313.445313 15.246094 301.378906 11.027344 C 292.238281 7.835938 282.914063 5.25 273.203125 5.003906 C 262.207031 4.722656 251.140625 4.316406 240.210938 5.230469 C 232.023438 5.910156 223.941406 8.359375 215.921875 10.441406 C 203.3125 13.714844 191.6875 19.402344 180.484375 25.960938 "/>
<path style=" stroke:none;fill-rule:nonzero;fill:rgb(100%,19.993591%,26.268005%);fill-opacity:1;" d="M 314.320313 313.925781 C 315.375 322.101563 303.988281 330.714844 295.449219 327.355469 C 289.425781 324.984375 288.210938 319.109375 291.25 312.820313 C 293.953125 307.226563 301.886719 303.863281 307.839844 305.371094 C 311.710938 306.351563 314.316406 309.789063 314.320313 313.925781 "/>
</g>
</svg>
